<?xml version="1.0" encoding="UTF-8"?>
<svg width="17px" height="21px" viewBox="0 0 17 21" version="1.1" xmlns="http://www.w3.org/2000/svg" xmlns:xlink="http://www.w3.org/1999/xlink">
    <!-- Generator: Sketch 43.1 (39012) - http://www.bohemiancoding.com/sketch -->
    <title>points</title>
    <desc>Created with Sketch.</desc>
    <defs></defs>
    <g id="static-pages" stroke="none" stroke-width="1" fill="none" fill-rule="evenodd">
        <g id="about" transform="translate(-712.000000, -959.000000)" fill-rule="nonzero" fill="#05AB6B">
            <g id="points" transform="translate(712.000000, 959.000000)">
                <path d="M16.6675286,13.8883977 C15.6434,15.5161364 12.3747857,16.7062159 8.5,16.7062159 C4.6257,16.7062159 1.3566,15.5161364 0.332957143,13.8883977 C0.115842857,13.5440455 0,13.7282727 0,13.899375 L0,16.288125 C0,18.6012273 3.80557143,21 8.5,21 C13.1949143,21 17,18.6012273 17,16.288125 L17,13.899375 C17,13.7282727 16.8841571,13.5440455 16.6675286,13.8883977 Z M16.6813714,7.78527273 C15.674,9.22425 12.3925143,10.2790227 8.5,10.2790227 C4.60821429,10.2790227 1.32624286,9.22425 0.318628571,7.78527273 C0.110985714,7.48864773 0,7.64972727 0,7.78407955 L0,10.5949773 C0,12.6980795 3.80557143,14.4024205 8.5,14.4024205 C13.1949143,14.4024205 17,12.6980795 17,10.5949773 L17,7.78407955 C17,7.64972727 16.8890143,7.48864773 16.6813714,7.78527273 Z M8.5,0 C3.80557143,0 0,1.40628409 0,3.14093182 L0,4.64386364 C0,6.48375 3.80557143,7.97522727 8.5,7.97522727 C13.1949143,7.97522727 17,6.48375 17,4.64386364 L17,3.14093182 C17,1.40628409 13.1949143,0 8.5,0 Z" id="Shape"></path>
            </g>
        </g>
    </g>
</svg>