<?xml version="1.0" encoding="UTF-8"?>
<svg width="31px" height="27px" viewBox="0 0 31 27" version="1.1" xmlns="http://www.w3.org/2000/svg" xmlns:xlink="http://www.w3.org/1999/xlink">
    <!-- Generator: Sketch 43.1 (39012) - http://www.bohemiancoding.com/sketch -->
    <title>status</title>
    <desc>Created with Sketch.</desc>
    <defs></defs>
    <g id="static-pages" stroke="none" stroke-width="1" fill="none" fill-rule="evenodd">
        <g id="about" transform="translate(-1144.000000, -956.000000)" fill-rule="nonzero" fill="#05AB6B">
            <g id="status" transform="translate(1144.000000, 956.000000)">
                <path d="M27.9,6.23076923 C26.1875083,6.23076923 24.8,7.62620192 24.8,9.34615385 C24.8,9.78230769 24.8909333,10.195875 25.0513583,10.5733558 L20.6666667,12.4615385 L16.9985917,5.82706731 C17.949,5.29381731 18.6,4.28573077 18.6,3.11538462 C18.6,1.39543269 17.2124917,0 15.5,0 C13.7875083,0 12.4,1.39543269 12.4,3.11538462 C12.4,4.28573077 13.051,5.29381731 14.0014083,5.82706731 L10.3333333,12.4615385 L5.94864167,10.5733558 C6.10906667,10.195875 6.2,9.78230769 6.2,9.34615385 C6.2,7.62620192 4.81249167,6.23076923 3.1,6.23076923 C1.38750833,6.23076923 0,7.62620192 0,9.34615385 C0,11.0661058 1.38750833,12.4615385 3.1,12.4615385 C3.34025,12.4615385 3.57068333,12.4270096 3.79620833,12.3763846 L6.2,22.8461538 L6.2,24.9230769 C6.2,26.0710962 7.12535,27 8.26666667,27 L22.7333333,27 C23.87465,27 24.8,26.0710962 24.8,24.9230769 L24.8,22.8461538 L27.204825,12.3763846 C27.4288,12.4290865 27.65975,12.4615385 27.9,12.4615385 C29.6124917,12.4615385 31,11.0661058 31,9.34615385 C31,7.62620192 29.6124917,6.23076923 27.9,6.23076923 Z M15.5,2.07692308 C16.0701417,2.07692308 16.5333333,2.54345192 16.5333333,3.11538462 C16.5333333,3.68731731 16.0701417,4.15384615 15.5,4.15384615 C14.9298583,4.15384615 14.4666667,3.68731731 14.4666667,3.11538462 C14.4666667,2.54345192 14.9298583,2.07692308 15.5,2.07692308 Z M2.06666667,9.34615385 C2.06666667,8.77422115 2.52985833,8.30769231 3.1,8.30769231 C3.67014167,8.30769231 4.13333333,8.77422115 4.13333333,9.34615385 C4.13333333,9.91808654 3.67014167,10.3846154 3.1,10.3846154 C2.52985833,10.3846154 2.06666667,9.91808654 2.06666667,9.34615385 Z M22.7333333,24.9230769 L8.26666667,24.9230769 L8.26666667,22.8461538 L22.7333333,22.8461538 L22.7333333,24.9230769 Z M23.1551917,20.7692308 L7.84480833,20.7692308 L6.0295,12.8673173 L9.51906667,14.3702308 C9.78334167,14.4836827 10.0597583,14.5384615 10.3323,14.5384615 C11.0628667,14.5384615 11.765275,14.1490385 12.1396,13.469625 L15.5,7.39306731 L18.8604,13.469625 C19.234725,14.1490385 19.9371333,14.5384615 20.6677,14.5384615 C20.9402417,14.5384615 21.2166583,14.4836827 21.4809333,14.3702308 L24.9705,12.8673173 L23.1551917,20.7692308 Z M27.9,10.3846154 C27.3298583,10.3846154 26.8666667,9.91808654 26.8666667,9.34615385 C26.8666667,8.77422115 27.3298583,8.30769231 27.9,8.30769231 C28.4701417,8.30769231 28.9333333,8.77422115 28.9333333,9.34615385 C28.9333333,9.91808654 28.4701417,10.3846154 27.9,10.3846154 Z" id="Shape"></path>
            </g>
        </g>
    </g>
</svg>