<?xml version="1.0" encoding="UTF-8"?>
<svg width="25px" height="25px" viewBox="0 0 25 25" version="1.1" xmlns="http://www.w3.org/2000/svg" xmlns:xlink="http://www.w3.org/1999/xlink">
    <!-- Generator: Sketch 43.1 (39012) - http://www.bohemiancoding.com/sketch -->
    <title>calendar</title>
    <desc>Created with Sketch.</desc>
    <defs></defs>
    <g id="static-pages" stroke="none" stroke-width="1" fill="none" fill-rule="evenodd">
        <g id="about" transform="translate(-927.000000, -957.000000)" fill-rule="nonzero" fill="#05AB6B">
            <g id="calendar" transform="translate(927.000000, 957.000000)">
                <path d="M23.2645089,2 L21.4285714,2 L21.4285714,4.25024038 C21.4285714,5.49423077 20.1339286,6.42307692 18.7946429,6.42307692 C17.4553571,6.42307692 16.0714286,5.49423077 16.0714286,4.25024038 L16.0714286,2 L8.92857143,2 L8.92857143,4.25024038 C8.92857143,5.49423077 7.58928571,6.42307692 6.25,6.42307692 C4.91071429,6.42307692 3.57142857,5.49423077 3.57142857,4.25024038 L3.57142857,2 L1.73549107,2 C0.775669643,2 0,2.73533654 0,3.62548077 L0,23.3911058 C0,24.28125 0.775669643,25 1.73549107,25 L23.2645089,25 C24.2243304,25 25,24.28125 25,23.3855769 L25,3.62548077 C25,2.73533654 24.2243304,2 23.2645089,2 Z M22,21.3382813 C22,21.6992188 21.6869318,21.9945313 21.3090909,21.9945313 L3.68551136,22 C3.30767045,21.9835938 3,21.69375 3,21.3328125 L3,8.67265625 C3,8.2953125 3.31846591,8 3.71789773,8 L21.2875,8 C21.6815341,8 22,8.28984375 22,8.66171875 L22,21.3382813 Z" id="Shape"></path>
                <path d="M8,3.33333333 C8,4.25520833 7.3296875,5 6.5,5 L6.5,5 C5.6703125,5 5,4.25520833 5,3.33333333 L5,1.66666667 C5,0.744791667 5.6703125,0 6.5,0 L6.5,0 C7.3296875,0 8,0.744791667 8,1.66666667 L8,3.33333333 Z" id="Shape"></path>
                <path d="M20,3.33333333 C20,4.25520833 19.3296875,5 18.5,5 L18.5,5 C17.6703125,5 17,4.25520833 17,3.33333333 L17,1.66666667 C17,0.744791667 17.6703125,0 18.5,0 L18.5,0 C19.3296875,0 20,0.744791667 20,1.66666667 L20,3.33333333 Z" id="Shape"></path>
            </g>
        </g>
    </g>
</svg>