<?xml version="1.0" encoding="UTF-8"?>
<svg width="14px" height="12px" viewBox="0 0 14 12" version="1.1" xmlns="http://www.w3.org/2000/svg" xmlns:xlink="http://www.w3.org/1999/xlink">
    <!-- Generator: Sketch 41.2 (35397) - http://www.bohemiancoding.com/sketch -->
    <title>icon/subscribe</title>
    <desc>Created with Sketch.</desc>
    <defs></defs>
    <g id="Page-1" stroke="none" stroke-width="1" fill="none" fill-rule="evenodd">
        <g id="Artboard" transform="translate(-309.000000, -278.000000)" fill="#FFFFFF">
            <g id="icon/subscribe" transform="translate(309.000000, 278.000000)">
                <path d="M10.4995625,12 C8.56664306,12 6.99970835,10.4330653 6.99970835,8.50014583 C6.99970835,6.56722637 8.56664306,4.99979168 10.4995625,4.99979168 C12.432482,4.99979168 13.9994167,6.56722637 13.9994167,8.50014583 C13.9994167,10.4330653 12.432482,12 10.4995625,12 L10.4995625,12 Z M11.9995,8.00016666 L10.9995417,8.00016666 L10.9995417,7.00020832 C10.9995417,6.72421982 10.776051,6.50022916 10.4995625,6.50022916 C10.223574,6.50022916 9.99958335,6.72421982 9.99958335,7.00020832 L9.99958335,8.00016666 L8.99962502,8.00016666 C8.72363652,8.00016666 8.49964585,8.22415733 8.49964585,8.50014583 C8.49964585,8.77613433 8.72363652,9.00012499 8.99962502,9.00012499 L9.99958335,9.00012499 L9.99958335,10.0000833 C9.99958335,10.2760718 10.223574,10.5000625 10.4995625,10.5000625 C10.776051,10.5000625 10.9995417,10.2760718 10.9995417,10.0000833 L10.9995417,9.00012499 L11.9995,9.00012499 C12.2754885,9.00012499 12.4994792,8.77613433 12.4994792,8.50014583 C12.4994792,8.22415733 12.2754885,8.00016666 11.9995,8.00016666 L11.9995,8.00016666 Z M6.02974876,7.99766676 C6.01974918,7.99766676 6.00974959,8.00016666 5.99975001,8.00016666 C4.33881922,8.00016666 2.99987501,5.79525853 2.99987501,3.52935294 C2.99987501,1.42094079 4.25232282,0 5.99975001,0 C7.7471772,0 8.99962502,1.42094079 8.99962502,3.52935294 C8.99962502,3.78184242 8.98062581,4.03283197 8.94912712,4.28082163 C7.37969251,4.85729761 6.2207408,6.27923837 6.02974876,7.99766676 L6.02974876,7.99766676 Z M5.99975001,9.00012499 C6.00974959,9.00012499 6.0192492,8.9976251 6.0287488,8.9976251 C6.16124328,10.199575 6.7657181,11.2585309 7.65418108,11.9845006 C7.17870089,11.9950002 6.64172326,12 5.99975001,12 C3.97533436,12 2.90687888,11.9590017 1.99841673,11.808008 C0.725469772,11.5955169 0,11.1420357 0,10.3795675 C0,9.37260947 1.295946,7.96866797 3.09787092,7.15470189 C3.82584059,8.25915587 4.85429774,9.00012499 5.99975001,9.00012499 L5.99975001,9.00012499 Z" id="User-Plus-Icon"></path>
            </g>
        </g>
    </g>
</svg>