<?xml version="1.0" encoding="UTF-8"?>
<svg width="18px" height="18px" viewBox="0 0 18 18" version="1.1" xmlns="http://www.w3.org/2000/svg" xmlns:xlink="http://www.w3.org/1999/xlink">
    <!-- Generator: Sketch 42 (36781) - http://www.bohemiancoding.com/sketch -->
    <title>Shape</title>
    <desc>Created with Sketch.</desc>
    <defs></defs>
    <g id="Symbols" stroke="none" stroke-width="1" fill="none" fill-rule="evenodd">
        <g id="01_components/header" transform="translate(-1042.000000, -23.000000)" fill="#888b94">
            <path d="M1059.707,39.293 L1054.599,34.184 C1055.475,33.015 1056,31.569 1056,30 C1056,26.14 1052.859,23 1049,23 C1045.141,23 1042,26.14 1042,30 C1042,33.86 1045.141,37 1049,37 C1050.569,37 1052.016,36.474 1053.185,35.598 L1058.293,40.707 C1058.488,40.902 1058.744,41 1059,41 C1059.256,41 1059.512,40.902 1059.707,40.707 C1060.098,40.316 1060.098,39.684 1059.707,39.293 L1059.707,39.293 Z M1049,35 C1046.243,35 1044,32.757 1044,30 C1044,27.243 1046.243,25 1049,25 C1051.757,25 1054,27.243 1054,30 C1054,32.757 1051.757,35 1049,35 L1049,35 Z" id="Shape"></path>
        </g>
    </g>
</svg>