<?xml version="1.0" encoding="UTF-8"?>
<svg width="129px" height="62px" viewBox="0 0 129 62" version="1.1" xmlns="http://www.w3.org/2000/svg" xmlns:xlink="http://www.w3.org/1999/xlink">
    <!-- Generator: Sketch 42 (36781) - http://www.bohemiancoding.com/sketch -->
    <title>logo-foxy</title>
    <desc>Created with Sketch.</desc>
    <defs></defs>
    <g id="Symbols" stroke="none" stroke-width="1" fill="none" fill-rule="evenodd">
        <g id="01_components/header" transform="translate(-250.000000, -15.000000)" fill="#FFFFFF">
            <g id="logo-foxy" transform="translate(250.000000, 15.000000)">
                <path d="M35.3098104,19.4109684 C35.3098104,19.4109684 23.8294606,25.6377226 23.0024264,36.9371735 C23.0024264,36.9371735 22.3816263,53.8861787 41,52.9636628 C41,52.9636628 25.6907863,49.8515404 35.2071794,31.5179059 C35.2071794,31.5179059 39.8631797,25.6377226 37.8971253,20.1030265 C37.8971253,20.1030265 37.2297167,18.1812894 35.3098104,19.4109684" id="Fill-2"></path>
                <path d="M40,19 C40,19 41.229752,19.9074879 41.2983044,24 C41.2983044,24 41.7652812,22.8115286 43.814913,22.4107322 C43.814913,22.4107322 44.1335172,22.4107322 45,22.3606078 C45,22.3606078 44.7954244,19.4935661 40,19" id="Fill-4"></path>
                <path d="M48.1341003,19 C53.6484714,20.2511303 53.4269517,29.383709 53.4269517,29.383709 L53.537357,24.1646162 C66.2262688,27.8079786 65.9997307,41.0168811 65.9997307,41.0168811 C65.0074473,61.1323561 47.1407804,62 47.1407804,62 C56.4036386,59.8256738 56.8461869,48.409816 56.8461869,48.409816 C56.9573012,41.6700071 50.6694389,40.9074442 50.6694389,40.9074442 C47.1407804,41.2348407 39.4204319,40.9074442 39.4204319,40.9074442 C34.5685469,40.1465483 35.0104952,37.3207632 35.0104952,37.3207632 C35.6712902,36.0152102 38.6491225,33.9491917 38.6491225,33.9491917 C40.0828088,32.8625663 39.4204319,31.122331 39.4204319,31.122331 C39.7518658,25.3613238 47.1413259,24.8172045 47.1413259,24.8172045 C47.2523312,23.9467642 48.1341003,23.1205288 48.1341003,23.1205288 C48.9064461,21.7516799 48.1341003,19 48.1341003,19 Z M43.5551083,33.3549787 C44.9943585,32.8642603 46.2473816,32.799351 47.6909957,33.2574804 C47.7065418,33.2629657 48.3943381,33.3963873 48.3081522,33.2988889 C46.9926716,31.8015121 45.1252738,31.440451 43.4115378,32.5531583 C43.1711991,32.7090051 42.5120951,33.0373696 42.4369825,33.3620236 C42.3275591,33.8500531 42.8038181,33.6501626 43.1204149,33.5184081 C43.2645309,33.4590379 43.4088104,33.4039699 43.5551083,33.3549787 Z" id="Combined-Shape"></path>
                <path d="M50.2963231,43 C50.2963231,43 56.0850333,48.8047592 44.3245703,52.9891221 C44.3245703,52.9891221 35.4018397,55.6348911 28.3883758,50.0006051 C28.3883758,50.0006051 23.9962362,45.9018729 23.0007795,43 C23.0007795,43 22.71447,54.0132 33.1163015,59.9890517 C33.1163015,59.9890517 40.0951526,64.5136854 47.6380992,59.9890517 C47.6380992,59.9890517 53.6846906,57.4275622 54,49.3174737 C54,49.3174737 53.920536,43.5126582 50.2963231,43" id="Fill-10"></path>
                <polygon id="Fill-12" points="0 20 20 20 20 24 5 24 5 36 19 36 19 40 5 40 5 57 0 57"></polygon>
                <path d="M90,57 L86,49 C83.5871805,45.6906408 82.4190731,43.6601612 81,42 L81,42 C80.0793664,43.6601612 78.9664726,45.6361367 77,49 L73,57 L67,57 L78,38 L67,20 L73,20 L78,29 C79.4129286,31.0891906 80.4706087,32.9551357 81,35 L82,35 C82.6964508,32.7355051 83.6418486,31.0336105 85,29 L90,20 L96,20 L84,38 L96,57 L90,57 Z" id="Fill-14"></path>
                <path d="M109,57 L109,41 L97,20 L103,20 L108,30 C109.10618,33.0107158 110.261006,34.2602342 111,37 L112,37 C112.517101,34.4254144 113.838644,33.0107158 115,30 L121,20 L126,20 L114,41 L114,57 L109,57 Z" id="Fill-16"></path>
                <polygon id="Fill-18" points="0 0 5 0 5 1 1 1 1 5 5 5 5 6 1 6 1 12 0 12"></polygon>
                <path d="M21.1949906,6.05987257 C21.1949906,8.55612992 22.2075364,10.777003 23.9998216,10.777003 C25.7929989,10.777003 26.8059462,8.59095949 26.8059462,5.95686218 C26.8059462,3.6324465 25.8964437,1.22169604 24.0133376,1.22169604 C22.1298302,1.22169604 21.1949906,3.52878565 21.1949906,6.05987257 M28,5.88738044 C28,9.86475206 26.1693524,12 23.9355868,12 C21.6110894,12 20,9.6066939 20,6.09458387 C20,2.41004085 21.7146235,0 24.0526369,0 C26.4548851,0 28,2.42683474 28,5.88738044" id="Fill-20"></path>
                <polygon id="Fill-22" points="47 0 48 0 48 11 52 11 52 12 47 12"></polygon>
                <polygon id="Fill-24" points="70 0 71 0 71 11 75 11 75 12 70 12"></polygon>
                <path d="M91.1949906,6.05987257 C91.1949906,8.55612992 92.2078933,10.777003 93.9997324,10.777003 C95.7921067,10.777003 96.8054555,8.59095949 96.8054555,5.95686218 C96.8054555,3.6324465 95.8963991,1.22169604 94.012847,1.22169604 C92.1297409,1.22169604 91.1949906,3.52878565 91.1949906,6.05987257 M98,5.88738044 C98,9.86475206 96.1693524,12 93.9355868,12 C91.6106434,12 90,9.6066939 90,6.09458387 C90,2.41004085 91.7145342,0 94.0521908,0 C96.4548851,0 98,2.42683474 98,5.88738044" id="Fill-26"></path>
                <path d="M117.908996,12 L115,0 L116.565767,0 L117.926173,6.07148463 C118.266493,7.56673019 118.572344,9.06246497 118.776594,10.2200389 L118.810889,10.2200389 C118.997847,9.02644748 119.355227,7.60262538 119.746902,6.05362876 L121.27779,0 L122.825854,0 L124.219971,6.0894628 C124.543582,7.51340719 124.84955,8.93790194 125.01933,10.2019996 L125.053625,10.2019996 C125.292171,8.88457893 125.614614,7.54936353 125.972111,6.05362876 L127.486348,0 L129,0 L125.751326,12 L124.203379,12 L122.757148,5.75130199 C122.400936,4.22034468 122.162448,3.0447314 122.009143,1.83456823 L121.974848,1.83456823 C121.787891,3.02687553 121.516277,4.20169386 121.090774,5.75130199 L119.45706,12 L117.908996,12 Z" id="Fill-28"></path>
            </g>
        </g>
    </g>
</svg>