<?xml version="1.0" encoding="UTF-8"?>
<svg width="20px" height="18px" viewBox="0 0 20 18" version="1.1" xmlns="http://www.w3.org/2000/svg" xmlns:xlink="http://www.w3.org/1999/xlink">
    <!-- Generator: Sketch 41.2 (35397) - http://www.bohemiancoding.com/sketch -->
    <title>Shape</title>
    <desc>Created with Sketch.</desc>
    <defs></defs>
    <g id="atimic_kit" stroke="none" stroke-width="1" fill="none" fill-rule="evenodd">
        <g id="Atoms" transform="translate(-355.000000, -1283.000000)" fill="#ffffff">
            <path d="M372.998874,1291.47085 C372.77758,1291.47085 372.555227,1291.40202 372.364639,1291.25908 L364.529351,1285.38262 L356.694064,1291.25908 C356.226064,1291.61061 355.562182,1291.51638 355.211712,1291.04732 C354.861242,1290.57932 354.955477,1289.91544 355.423477,1289.56497 L363.894058,1283.21203 C364.26994,1282.92932 364.788763,1282.92932 365.164645,1283.21203 L373.635226,1289.56497 C374.103226,1289.91544 374.197461,1290.57932 373.846991,1291.04732 C373.638403,1291.32473 373.320756,1291.47085 372.998874,1291.47085 L372.998874,1291.47085 Z M364.529351,1288.29438 L371.94111,1293.58849 L371.94111,1298.8826 C371.94111,1300.0526 370.993464,1301.00025 369.823465,1301.00025 L366.646997,1301.00025 L366.646997,1295.70614 L362.411706,1295.70614 L362.411706,1301.00025 L359.249003,1301.00025 C358.071592,1301.00025 357.117593,1300.04625 357.117593,1298.86884 L357.117593,1293.58849 L364.529351,1288.29438 L364.529351,1288.29438 Z" id="Shape"></path>
        </g>
    </g>
</svg>