<?xml version="1.0" encoding="UTF-8"?>
<svg width="16px" height="16px" viewBox="0 0 16 16" version="1.1" xmlns="http://www.w3.org/2000/svg" xmlns:xlink="http://www.w3.org/1999/xlink">
    <!-- Generator: Sketch 42 (36781) - http://www.bohemiancoding.com/sketch -->
    <title>icon/globe</title>
    <desc>Created with Sketch.</desc>
    <defs></defs>
    <g id="atimic_kit" stroke="none" stroke-width="1" fill="none" fill-rule="evenodd">
        <g id="Atoms" transform="translate(-436.000000, -1383.000000)" fill="#888B94">
            <g id="icon/globe" transform="translate(436.000000, 1383.000000)">
                <path d="M8,0 C3.58844444,0 0,3.58844444 0,8 C0,12.4115556 3.58844444,16 8,16 C12.4115556,16 16,12.4115556 16,8 C16,3.58844444 12.4115556,0 8,0 L8,0 Z M14.2222222,8 C14.2222222,8.95466667 14,9.85688889 13.6133333,10.6666667 L9.77777778,10.6666667 C8.87466667,10.6666667 8.88888889,9.77777778 8.88888889,9.77777778 C8.88888889,9.28888889 8.48888889,8.88888889 8,8.88888889 L6.37066667,8.88888889 L6.29866667,8.904 L6.22222222,8.88888889 C5.73333333,8.88888889 5.33333333,8.48888889 5.33333333,8 C5.33333333,7.51111111 5.73333333,7.11111111 6.22222222,7.11111111 L6.22222222,7.10577778 L8,7.11111111 C8.48888889,7.11111111 8.88888889,6.71111111 8.88888889,6.22222222 C8.88888889,6.22222222 8.88888889,5.33333333 9.77777778,5.33333333 L10.6666667,5.33333333 C11.1555556,5.33333333 11.5555556,4.93333333 11.5555556,4.44444444 L11.5555556,2.90133333 C13.1653333,4.02755556 14.2222222,5.89155556 14.2222222,8 L14.2222222,8 Z M1.77777778,8 C1.77777778,7.70044444 1.80622222,7.408 1.84711111,7.12 C2.65955556,7.16977778 2.66666667,8 2.66666667,8 C2.66666667,8.48888889 3.06666667,8.88888889 3.55555556,8.88888889 C3.55555556,8.88888889 4.44444444,8.90755556 4.44444444,9.77777778 L4.44444444,10.6666667 C4.44444444,11.1555556 4.84444444,11.5555556 5.33333333,11.5555556 C6.22222222,11.5555556 6.22222222,12.4444444 6.22222222,12.4444444 L6.22222222,13.96 C3.656,13.1928889 1.77777778,10.8124444 1.77777778,8 L1.77777778,8 Z" id="Shape"></path>
            </g>
        </g>
    </g>
</svg>