<?xml version="1.0" encoding="UTF-8"?>
<svg width="18px" height="18px" viewBox="0 0 18 18" version="1.1" xmlns="http://www.w3.org/2000/svg" xmlns:xlink="http://www.w3.org/1999/xlink">
    <!-- Generator: Sketch 41.2 (35397) - http://www.bohemiancoding.com/sketch -->
    <title>icon/info</title>
    <desc>Created with Sketch.</desc>
    <defs></defs>
    <g id="Page-1" stroke="none" stroke-width="1" fill="none" fill-rule="evenodd">
        <g id="Artboard" transform="translate(-261.000000, -276.000000)" fill="#A4A8B3">
            <g id="icon/info" transform="translate(261.000000, 276.000000)">
                <path d="M8.94869707,0 C4.00603339,0 0,4.029 0,9 C0,13.971 4.00603339,18 8.94869707,18 C13.8913607,18 17.8973941,13.971 17.8973941,9 C17.8973941,4.029 13.8913607,0 8.94869707,0 M9.44584691,6 L8.45154723,6 C8.17712052,6 7.95439739,5.776 7.95439739,5.5 L7.95439739,4.5 C7.95439739,4.224 8.17712052,4 8.45154723,4 L9.44584691,4 C9.72027362,4 9.94299674,4.224 9.94299674,4.5 L9.94299674,5.5 C9.94299674,5.776 9.72027362,6 9.44584691,6 M9.44584691,14 L8.45154723,14 C8.17712052,14 7.95439739,13.776 7.95439739,13.5 L7.95439739,8.5 C7.95439739,8.224 8.17712052,8 8.45154723,8 L9.44584691,8 C9.72027362,8 9.94299674,8.224 9.94299674,8.5 L9.94299674,13.5 C9.94299674,13.776 9.72027362,14 9.44584691,14" id="info-copy"></path>
            </g>
        </g>
    </g>
</svg>