<?xml version="1.0" encoding="UTF-8"?>
<svg width="14px" height="18px" viewBox="0 0 14 18" version="1.1" xmlns="http://www.w3.org/2000/svg" xmlns:xlink="http://www.w3.org/1999/xlink">
    <!-- Generator: Sketch 41.2 (35397) - http://www.bohemiancoding.com/sketch -->
    <title>icon/map</title>
    <desc>Created with Sketch.</desc>
    <defs></defs>
    <g id="atimic_kit" stroke="none" stroke-width="1" fill="none" fill-rule="evenodd">
        <g id="Atoms" transform="translate(-265.000000, -1383.000000)" fill="#888B94">
            <g id="icon/map" transform="translate(265.000000, 1383.000000)">
                <path d="M7,0 C3.134,0 0,3.134 0,7 C0,11.028 4.543,16.061 6.31,17.728 C6.696,18.092 7.292,18.091 7.677,17.725 C9.434,16.057 14,11.026 14,7 C14,3.134 10.866,1.77635684e-15 7,1.77635684e-15 L7,0 Z M7,10 C5.343,10 4,8.657 4,7 C4,5.343 5.343,4 7,4 C8.657,4 10,5.343 10,7 C10,8.657 8.657,10 7,10 L7,10 Z" id="Shape"></path>
            </g>
        </g>
    </g>
</svg>