<?xml version="1.0" encoding="UTF-8"?>
<svg width="48px" height="35px" viewBox="0 0 48 35" version="1.1" xmlns="http://www.w3.org/2000/svg" xmlns:xlink="http://www.w3.org/1999/xlink">
    <!-- Generator: Sketch 42 (36781) - http://www.bohemiancoding.com/sketch -->
    <title>photo</title>
    <desc>Created with Sketch.</desc>
    <defs>
        <path d="M46,4 L36,4 C34.531,4 33.516,0 32,0 L16,0 C14.484,0 13.469,4 12,4 L2,4 C0.896,4 0,4.896 0,6 L0,33 C0,34.104 0.896,35 2,35 L46,35 C47.104,35 48,34.104 48,33 L48,6 C48,4.896 47.104,4 46,4 Z" id="path-1"></path>
        <mask id="mask-2" maskContentUnits="userSpaceOnUse" maskUnits="objectBoundingBox" x="0" y="0" width="48" height="35" fill="white">
            <use xlink:href="#path-1"></use>
        </mask>
        <circle id="path-3" cx="24" cy="19" r="11"></circle>
        <mask id="mask-4" maskContentUnits="userSpaceOnUse" maskUnits="objectBoundingBox" x="0" y="0" width="22" height="22" fill="white">
            <use xlink:href="#path-3"></use>
        </mask>
        <circle id="path-5" cx="24" cy="19" r="6"></circle>
        <mask id="mask-6" maskContentUnits="userSpaceOnUse" maskUnits="objectBoundingBox" x="0" y="0" width="12" height="12" fill="white">
            <use xlink:href="#path-5"></use>
        </mask>
    </defs>
    <g id="upload-photo" stroke="none" stroke-width="1" fill="none" fill-rule="evenodd">
        <g id="place_photos-about" transform="translate(-697.000000, -264.000000)" stroke="#888B94">
            <g id="photo" transform="translate(697.000000, 264.000000)">
                <use id="Shape" mask="url(#mask-2)" stroke-width="2.6" stroke-linecap="round" fill="#D0D3D9" xlink:href="#path-1"></use>
                <use id="Oval" mask="url(#mask-4)" stroke-width="2.6" stroke-linecap="round" fill="#FFFFFF" xlink:href="#path-3"></use>
                <use id="Oval" mask="url(#mask-6)" stroke-width="2" stroke-linecap="round" fill="#FFFFFF" xlink:href="#path-5"></use>
                <path d="M8,8 L7,8 C5.896,8 5,8.896 5,10 C5,11.104 5.896,12 7,12 L8,12 C9.104,12 10,11.104 10,10 C10,8.896 9.104,8 8,8 Z" id="Shape" fill="#FFFFFF" fill-rule="nonzero"></path>
            </g>
        </g>
    </g>
</svg>