<?xml version="1.0" encoding="UTF-8"?>
<svg width="18px" height="17px" viewBox="0 0 18 17" version="1.1" xmlns="http://www.w3.org/2000/svg" xmlns:xlink="http://www.w3.org/1999/xlink">
    <!-- Generator: Sketch 41.2 (35397) - http://www.bohemiancoding.com/sketch -->
    <title>icon/raiting-on</title>
    <desc>Created with Sketch.</desc>
    <defs></defs>
    <g id="atimic_kit" stroke="none" stroke-width="1" fill="none" fill-rule="evenodd">
        <g id="Atoms" transform="translate(-367.000000, -1296.000000)" fill="#F58B00">
            <g id="icon/raiting-50%" transform="translate(367.000000, 1296.000000)">
                <path d="M17.1389279,5.989 L11.5739279,5.989 L9.81892788,0.59 C9.68992788,0.196 9.35092788,0 9.00992788,0 L8.99992788,0.002 L8.99992788,0 L8.85992788,0.022 L8.74992788,0.039 L8.63292788,0.095 L8.51492788,0.153 L8.44392788,0.221 C8.33392788,0.318 8.23992788,0.439 8.18692788,0.602 L6.43192788,5.989 L0.860927876,5.989 C0.650927876,5.989 0.470927876,6.056 0.331927876,6.164 C-0.0860721237,6.489 -0.148072124,7.183 0.370927876,7.546 L4.84292788,10.647 L3.11692788,15.824 C3.08592788,15.916 3.07592788,16.004 3.07392788,16.091 L3.07792788,16.161 L3.10892788,16.342 L3.12892788,16.409 L3.22692788,16.594 L3.24092788,16.617 L3.40892788,16.785 L3.45592788,16.816 L3.61292788,16.902 L3.68092788,16.927 L3.85792788,16.962 L3.91592788,16.969 L3.93392788,16.972 L4.07592788,16.949 L4.17692788,16.933 L4.36692788,16.839 L4.43092788,16.807 L8.47392788,13.896 L9.00192788,13.516 L13.5729279,16.852 C13.7329279,16.968 13.9059279,17.019 14.0739279,17.019 C14.6129279,17.019 15.0919279,16.486 14.8909279,15.877 L13.1629279,10.647 L17.6269279,7.546 C18.3209279,7.063 17.9819279,5.989 17.1389279,5.989 L17.1389279,5.989 Z M12.3069279,9.416 L11.3869279,10.055 L12.8429279,14.462 L9.88692788,12.304 L9.00792788,11.663 L8.99992788,11.669 L8.99992788,2.95 L9.00392788,2.937 L10.4839279,7.489 L15.0789279,7.489 L12.3069279,9.416 L12.3069279,9.416 Z" id="Shape"></path>
            </g>
        </g>
    </g>
</svg>