<?xml version="1.0" encoding="UTF-8"?>
<svg width="18px" height="18px" viewBox="0 0 18 18" version="1.1" xmlns="http://www.w3.org/2000/svg" xmlns:xlink="http://www.w3.org/1999/xlink">
    <!-- Generator: Sketch 41.2 (35397) - http://www.bohemiancoding.com/sketch -->
    <title>Combined Shape</title>
    <desc>Created with Sketch.</desc>
    <defs></defs>
    <g id="atimic_kit" stroke="none" stroke-width="1" fill="none" fill-rule="evenodd">
        <g id="Atoms" transform="translate(-356.000000, -1332.000000)" fill="#888B94">
            <path d="M374,1347.36 L374,1348.2 C374,1349.19 373.19,1350 372.2,1350 L357.8,1350 C356.81,1350 356,1349.19 356,1348.2 L356,1347.36 C356,1345.17 358.55,1343.85 360.95,1342.8 C361.04,1342.77 361.1,1342.74 361.19,1342.68 C361.37,1342.59 361.58,1342.59 361.76,1342.71 C362.72,1343.34 363.83,1343.7 365,1343.7 C366.17,1343.7 367.28,1343.34 368.24,1342.74 C368.42,1342.62 368.63,1342.62 368.81,1342.71 C368.9,1342.74 368.96,1342.77 369.05,1342.83 C371.45,1343.85 374,1345.17 374,1347.36 Z M365,1332 C367.4687,1332 369.47,1334.2161 369.47,1336.95 C369.47,1339.6839 367.4687,1341.9 365,1341.9 C362.5313,1341.9 360.53,1339.6839 360.53,1336.95 C360.53,1334.2161 362.5313,1332 365,1332 Z" id="Combined-Shape"></path>
        </g>
    </g>
</svg>