<?xml version="1.0" encoding="UTF-8"?>
<svg width="18px" height="10px" viewBox="0 0 18 10" version="1.1" xmlns="http://www.w3.org/2000/svg" xmlns:xlink="http://www.w3.org/1999/xlink">
    <!-- Generator: Sketch 41.2 (35397) - http://www.bohemiancoding.com/sketch -->
    <title>inon/vkontakte</title>
    <desc>Created with Sketch.</desc>
    <defs></defs>
    <g id="Page-1" stroke="none" stroke-width="1" fill="none" fill-rule="evenodd">
        <g id="Artboard" transform="translate(-261.000000, -231.000000)" fill="#A4A8B3">
            <g id="inon/vkontakte" transform="translate(261.000000, 231.000000)">
                <path d="M17.9045376,8.75321768 C17.8827416,8.70888616 17.8624228,8.67211361 17.8435483,8.6426522 C17.5312494,8.11182019 16.9344545,7.46026146 16.0535246,6.68779013 L16.0349127,6.6701009 L16.0255903,6.66142667 L16.0161695,6.65253558 L16.0067159,6.65253558 C15.6069049,6.29283377 15.3537242,6.0509776 15.2476988,5.92715294 C15.0537019,5.69127579 15.0102413,5.45251756 15.1162667,5.21059943 C15.1911738,5.02782097 15.4725514,4.64181765 15.959743,4.05206282 C16.2160093,3.73951166 16.4189675,3.48901224 16.5688474,3.30028573 C17.649814,1.94400762 18.1184594,1.07732794 17.974685,0.699905917 L17.9188493,0.611707567 C17.8813301,0.558608876 17.7844958,0.510033178 17.6284776,0.465732636 C17.4720984,0.421525033 17.2722258,0.414213895 17.0284987,0.443675304 L14.3294795,0.461271603 C14.2857563,0.446649326 14.2233228,0.44801242 14.141982,0.465732636 C14.0607396,0.483452853 14.020102,0.49234394 14.020102,0.49234394 L13.9731291,0.514494211 L13.9358397,0.541105515 C13.9045901,0.558701814 13.8702221,0.589650234 13.8327029,0.633888817 C13.7953807,0.677972502 13.7641639,0.7297081 13.7392168,0.788661897 C13.4453656,1.50214845 13.1112707,2.16551033 12.7363085,2.77871656 C12.5051206,3.14436642 12.2928072,3.46125469 12.0989088,3.72956727 C11.9052729,3.99778691 11.742821,4.1954045 11.6117172,4.32207927 C11.4804164,4.44887795 11.3619174,4.5504594 11.2554981,4.62719537 C11.1492429,4.70396233 11.0681319,4.73639776 11.0119679,4.72453265 C10.9556727,4.71266754 10.90266,4.70089537 10.8524703,4.68912319 C10.7650568,4.6360245 10.6947452,4.56381152 10.6417325,4.47242229 C10.5884901,4.38103307 10.5526449,4.26600656 10.5339018,4.1274357 C10.515257,3.98877191 10.5042278,3.86950122 10.5010766,3.7692209 C10.4981551,3.66906451 10.4995009,3.52739571 10.5058362,3.34461725 C10.5123356,3.16174586 10.515257,3.03801414 10.515257,2.97314328 C10.515257,2.7490383 10.5198854,2.50581903 10.5291749,2.24342352 C10.5386286,1.98102801 10.5462769,1.77312526 10.5526778,1.6199631 C10.5590459,1.46664606 10.5620001,1.30443792 10.5620001,1.13343163 C10.5620001,0.962425349 10.5509709,0.828315528 10.5291749,0.730978255 C10.5076416,0.633764899 10.4745866,0.539401648 10.4310276,0.447919481 C10.3872059,0.356530253 10.3230655,0.285835263 10.2389017,0.235648636 C10.1545738,0.185523968 10.0497301,0.145746419 9.92496149,0.116192071 C9.59378805,0.0454661022 9.17208272,0.00720654383 8.65964854,0.00125849912 C7.49760368,-0.0105136727 6.75092888,0.0603052346 6.41978827,0.213622283 C6.28858595,0.278400207 6.16985721,0.366908352 6.06370052,0.478867902 C5.95120856,0.608640606 5.93551811,0.679459514 6.01672766,0.691107768 C6.39165708,0.74411352 6.65708164,0.870912203 6.81329676,1.0713799 L6.86959197,1.17760826 C6.91338079,1.25425129 6.95710395,1.38994106 7.00085994,1.58449169 C7.04455028,1.77904232 7.07274713,1.99425621 7.08515505,2.23000944 C7.11633899,2.66053015 7.11633899,3.02906109 7.08515505,3.33563323 C7.05387264,3.64232928 7.02432996,3.88108752 6.99613311,4.0520938 C6.96793627,4.22310009 6.92578871,4.36167094 6.86959197,4.46777538 C6.81329676,4.57391081 6.77584321,4.63878167 6.75706719,4.66232601 C6.738324,4.68587036 6.72269921,4.70070949 6.71029128,4.70653362 C6.62908174,4.73590209 6.5446225,4.75086514 6.457209,4.75086514 C6.36966419,4.75086514 6.2635075,4.70953862 6.13857479,4.62694754 C6.01367491,4.54435646 5.8840482,4.4309099 5.74969466,4.28642198 C5.61534112,4.14190308 5.46382001,3.93994838 5.29506566,3.68052688 C5.12644261,3.42110539 4.9514843,3.11450228 4.7702892,2.76071753 L4.62037652,2.50414615 C4.52666058,2.3390879 4.3986423,2.09874972 4.23619039,1.78334846 C4.07364001,1.46782327 3.92996411,1.16261423 3.80506423,0.867783283 C3.7551371,0.743958623 3.68013152,0.649688311 3.58017879,0.584817448 L3.53327158,0.558206144 C3.50208764,0.5346618 3.45202922,0.509661425 3.3833589,0.483019141 C3.31459011,0.456407837 3.24283422,0.437324527 3.16779582,0.425583334 L0.599913335,0.443179633 C0.337508695,0.443179633 0.159464816,0.499283326 0.0657160482,0.611335814 L0.0281968458,0.664341567 C0.00945365728,0.693864934 0,0.74101558 0,0.805917422 C0,0.870788285 0.0187431886,0.950405342 0.0562623909,1.04467565 C0.431126162,1.87616274 0.838782307,2.67806449 1.27923083,3.45050484 C1.71967934,4.22294519 2.10242116,4.84516643 2.42722651,5.31661093 C2.7520975,5.78839621 3.08323811,6.23366312 3.42064833,6.6521948 C3.75805855,7.07088139 3.9814012,7.33919397 4.09067629,7.45707058 C4.20008267,7.57516405 4.28601904,7.66345534 4.3484854,7.72240914 L4.58282449,7.93464901 C4.73277,8.07619388 4.95296144,8.24571316 5.24349727,8.44320683 C5.53409876,8.64082442 5.85581853,8.83537505 6.20882072,9.02716851 C6.56188856,9.21865218 6.97263027,9.37491227 7.44127564,9.49576291 C7.90985535,9.61673746 8.36592866,9.66528218 8.80956123,9.64186176 L9.88734381,9.64186176 C10.1059268,9.6240486 10.2715299,9.55917774 10.3840875,9.44721819 L10.421377,9.40288667 C10.4464554,9.36769407 10.4699254,9.31301543 10.4915901,9.23943936 C10.5135173,9.16573936 10.5244153,9.08454236 10.5244153,8.99622009 C10.5180144,8.74271566 10.5384645,8.51424259 10.5852075,8.31083185 C10.6319178,8.10748308 10.6851603,7.95416603 10.7447052,7.85091169 C10.8042173,7.74775029 10.8713776,7.66069818 10.9461206,7.5901271 C11.0210277,7.51940113 11.0744015,7.47655663 11.1057167,7.46181043 C11.136835,7.4469713 11.1616837,7.43690299 11.1804269,7.43086201 C11.3303724,7.38371136 11.5068406,7.429375 11.7100943,7.56806977 C11.9131838,7.70664063 12.1036684,7.87773985 12.2818436,8.08108863 C12.4599203,8.28462328 12.6738749,8.51297244 12.9237404,8.76647686 C13.1737699,9.02007423 13.3923857,9.20858387 13.579752,9.33259441 L13.7671182,9.43872983 C13.8922478,9.50954874 14.0546998,9.5744196 14.2546709,9.6333734 C14.4542809,9.69229622 14.6291736,9.70704241 14.7793488,9.677581 L17.1784442,9.64226449 C17.4157375,9.64226449 17.6003793,9.60518215 17.7313518,9.53160607 C17.862587,9.45790608 17.9405468,9.37670907 17.9656909,9.28838681 C17.9907694,9.1999716 17.9921152,9.0996603 17.9704506,8.98751488 C17.9482279,8.87564827 17.9263335,8.79742528 17.9045376,8.75321768 Z" id="vk"></path>
            </g>
        </g>
    </g>
</svg>