<?xml version="1.0" encoding="UTF-8"?>
<svg width="18px" height="17px" viewBox="0 0 18 17" version="1.1" xmlns="http://www.w3.org/2000/svg" xmlns:xlink="http://www.w3.org/1999/xlink">
    <!-- Generator: Sketch 41.2 (35397) - http://www.bohemiancoding.com/sketch -->
    <title>icon/warning</title>
    <desc>Created with Sketch.</desc>
    <defs></defs>
    <g id="Page-1" stroke="none" stroke-width="1" fill="none" fill-rule="evenodd">
        <g id="Artboard" transform="translate(-164.000000, -326.000000)" fill="#A4A8B3">
            <g id="icon/warning" transform="translate(164.000000, 326.000000)">
                <path d="M17.7263465,13.8770763 L10.7243465,1.05007627 C9.95334646,-0.365923732 8.04734646,-0.341923732 7.27634646,1.07407627 L0.274346458,13.8650763 C-0.500653542,15.2920763 0.458346458,17.0000763 1.99834646,17.0000763 L16.0023465,17.0000763 C17.5423465,17.0000763 18.5013465,15.3040763 17.7263465,13.8770763 L17.7263465,13.8770763 Z M10.0003465,13.5000763 C10.0003465,13.7760763 9.82234646,14.0000763 9.52934646,14.0000763 L8.47134646,14.0000763 C8.17834646,14.0000763 8.00034646,13.7760763 8.00034646,13.5000763 L8.00034646,12.5000763 C8.00034646,12.2240763 8.17834646,12.0000763 8.47134646,12.0000763 L9.52934646,12.0000763 C9.82234646,12.0000763 10.0003465,12.2240763 10.0003465,12.5000763 L10.0003465,13.5000763 Z M10.0003465,9.50007627 C10.0003465,9.77607627 9.82234646,10.0000763 9.52934646,10.0000763 L8.47134646,10.0000763 C8.17834646,10.0000763 8.00034646,9.77607627 8.00034646,9.50007627 L8.00034646,5.50007627 C8.00034646,5.22407627 8.17834646,5.00007627 8.47134646,5.00007627 L9.52934646,5.00007627 C9.82234646,5.00007627 10.0003465,5.22407627 10.0003465,5.50007627 L10.0003465,9.50007627 Z" id="Fill-1"></path>
            </g>
        </g>
    </g>
</svg>