<?xml version="1.0" encoding="UTF-8"?>
<svg width="96px" height="44px" viewBox="0 0 96 44" version="1.1" xmlns="http://www.w3.org/2000/svg" xmlns:xlink="http://www.w3.org/1999/xlink">
    <!-- Generator: Sketch 43.1 (39012) - http://www.bohemiancoding.com/sketch -->
    <title>logo</title>
    <desc>Created with Sketch.</desc>
    <defs></defs>
    <g id="static-pages" stroke="none" stroke-width="1" fill="none" fill-rule="evenodd" opacity="0.5">
        <g id="about" transform="translate(-251.000000, -34.000000)">
            <g id="logo" transform="translate(251.000000, 34.000000)">
                <g id="foxy" transform="translate(0.000000, 12.178322)" fill="#696C75">
                    <path d="M27.4805381,1.63964531 C27.4805381,1.63964531 18.3614564,5.97587439 17.7040497,13.8452869 C17.7040497,13.8452869 17.2114122,25.6499496 32,25.0079484 C32,25.0079484 19.8404821,22.8398338 27.3992668,10.071625 C27.3992668,10.071625 31.0971096,5.97587439 29.5356992,2.12114628 C29.5356992,2.12114628 29.0052094,0.782736806 27.4805381,1.63964531" id="Fill-1"></path>
                    <path d="M30.6382979,1.35314685 C30.6382979,1.35314685 31.6435599,2.09002536 31.6995479,5.41258741 C31.6995479,5.41258741 32.0803672,4.44770614 33.7554676,4.12222393 C33.7554676,4.12222393 34.0152317,4.1216732 34.7234043,4.08146981 C34.7234043,4.08146981 34.556449,1.75407925 30.6382979,1.35314685" id="Fill-2"></path>
                    <path d="M36.0723585,0 C40.0694524,0.924977197 39.9091571,7.67872707 39.9091571,7.67872707 L39.9887632,3.81920797 C49.1857076,6.51351728 49.0210799,16.2818866 49.0210799,16.2818866 C48.3019171,31.1566966 35.3521126,31.798951 35.3521126,31.798951 C42.066104,30.1908635 42.3866947,21.7489485 42.3866947,21.7489485 C42.4673839,16.763986 37.9103394,16.2007196 37.9103394,16.2007196 C35.3521126,16.4431311 29.7574808,16.2007196 29.7574808,16.2007196 C26.2407313,15.6379979 26.5607804,13.5478109 26.5607804,13.5478109 C27.0405833,12.5830673 29.1986133,11.0550573 29.1986133,11.0550573 C30.2372837,10.2510135 29.7574808,8.96432553 29.7574808,8.96432553 C29.9973823,4.70387402 35.3531957,4.30130739 35.3531957,4.30130739 C35.4338849,3.65796341 36.0723585,3.04730415 36.0723585,3.04730415 C36.6328506,2.03462299 36.0723585,0 36.0723585,0 Z M32.7863071,11.2585336 C33.783593,10.8828039 34.6514285,10.8337957 35.652339,11.183613 C35.662695,11.1881195 36.1390725,11.2900791 36.0800431,11.2157218 C35.1687123,10.0705068 33.8742083,9.79448355 32.6868892,10.6450859 C32.5196393,10.7645082 32.0634561,11.0157458 32.0111581,11.2641667 C31.9350413,11.6370798 32.2653987,11.4844221 32.4849466,11.3835891 C32.5843645,11.3379607 32.684818,11.2962756 32.7863071,11.2585336 Z" id="Combined-Shape"></path>
                    <path d="M38.6846707,18.2674825 C38.6846707,18.2674825 43.134208,22.4013961 34.094495,25.3814168 C34.094495,25.3814168 27.2354986,27.2657608 21.8441764,23.2532229 C21.8441764,23.2532229 18.4683069,20.3347139 17.7027303,18.2674825 C17.7027303,18.2674825 17.4821962,26.1107694 25.4783391,30.3666079 C25.4783391,30.3666079 30.842847,33.58938 36.6413093,30.3666079 C36.6413093,30.3666079 41.2889442,28.5426771 41.5319149,22.7666217 C41.5319149,22.7666217 41.470625,18.632708 38.6846707,18.2674825" id="Fill-5"></path>
                    <polyline id="Fill-6" points="0 4.05944056 14.9787234 4.05944056 14.9787234 6.99036478 3.63055091 6.99036478 3.63055091 15.9847497 14.1127763 15.9847497 14.1127763 18.8757827 3.63055091 18.8757827 3.63055091 31.1223776 0 31.1223776 0 4.05944056"></polyline>
                    <path d="M68.0783865,31.1223776 L64.5538571,25.1392384 C63.1358867,22.8503467 62.2857572,21.3652085 61.4345399,19.7992098 L61.3529535,19.7992098 C60.5833225,21.3652085 59.7734422,22.8104555 58.396265,25.1796687 L55.1148629,31.1223776 L51.0638298,31.1223776 L59.4090233,17.4299967 L51.3874556,4.05944056 L55.4787379,4.05944056 L59.0848536,10.4032177 C60.0981558,12.1708286 60.8677868,13.5352151 61.5966247,14.9810011 L61.7184603,14.9810011 C62.4880913,13.3745722 63.176136,12.1303983 64.1894382,10.4032177 L67.8760524,4.05944056 L71.9684226,4.05944056 L63.6623905,17.2294626 L72.1702128,31.1223776 L68.0783865,31.1223776" id="Fill-7"></path>
                    <path d="M83.4634978,31.1223776 L83.4634978,19.6374888 L74.893617,4.05944056 L78.8984151,4.05944056 L82.7026507,11.5271789 C83.704388,13.5756453 84.5453525,15.2214264 85.3863171,17.1081718 L85.4664346,17.1081718 C86.1869541,15.3421781 87.1489015,13.5756453 88.1893532,11.5271789 L92.0747817,4.05944056 L96,4.05944056 L86.9886665,19.5981367 L86.9886665,31.1223776 L83.4634978,31.1223776" id="Fill-8"></path>
                </g>
                <g id="follow" transform="translate(0.680851, 0.000000)" fill="#000000">
                    <polyline id="Fill-9" points="0 0 4.05592705 0 4.05592705 0.873272365 0.982968324 0.873272365 0.982968324 3.55217039 3.82096083 3.55217039 3.82096083 4.41306389 0.982968324 4.41306389 0.982968324 8.06088911 0 8.06088911 0 0"></polyline>
                    <path d="M16.6585004,4.07098024 C16.6585004,5.74790635 17.6000513,7.23983736 19.2656535,7.23983736 C20.9312557,7.23983736 21.8728065,5.77075868 21.8728065,4.00133503 C21.8728065,2.44030291 21.0277959,0.821051749 19.277579,0.821051749 C17.5273622,0.821051749 16.6585004,2.3706577 16.6585004,4.07098024 Z M22.9835866,3.95508626 C22.9835866,6.62663304 21.281072,8.06088911 19.2054578,8.06088911 C17.0446612,8.06088911 15.5477204,6.45306411 15.5477204,4.09383258 C15.5477204,1.61925116 17.1412014,0 19.3139236,0 C21.5468414,0 22.9835866,1.63067733 22.9835866,3.95508626 L22.9835866,3.95508626 Z" id="Fill-10"></path>
                    <polyline id="Fill-11" points="35.1513678 0 36.1008972 0 36.1008972 7.18761675 39.2072948 7.18761675 39.2072948 8.06088911 35.1513678 8.06088911 35.1513678 0"></polyline>
                    <polyline id="Fill-12" points="50.0231003 0 50.9726298 0 50.9726298 7.18761675 54.0790274 7.18761675 54.0790274 8.06088911 50.0231003 8.06088911 50.0231003 0"></polyline>
                    <path d="M67.3571055,4.07098024 C67.3571055,5.74790635 68.2987282,7.23983736 69.9644577,7.23983736 C71.6307551,7.23983736 72.5723778,5.77075868 72.5723778,4.00133503 C72.5723778,2.44030291 71.7273026,0.821051749 69.9769521,0.821051749 C68.2266015,0.821051749 67.3571055,2.3706577 67.3571055,4.07098024 Z M73.6826748,3.95508626 C73.6826748,6.62663304 71.980598,8.06088911 69.9048254,8.06088911 C67.7438637,8.06088911 66.2468085,6.45306411 66.2468085,4.09383258 C66.2468085,1.61925116 67.8404113,0 70.0127315,0 C72.2463878,0 73.6826748,1.63067733 73.6826748,3.95508626 L73.6826748,3.95508626 Z" id="Fill-13"></path>
                    <path d="M86.6053876,8.06088911 L84.4984802,0 L85.6322109,0 L86.6175595,4.07827197 C86.8638967,5.0832104 87.08589,6.08758616 87.2336923,6.86520369 L87.2586158,6.86520369 C87.3936665,6.06339111 87.6521757,5.10684277 87.9361879,4.06645579 L89.044995,0 L90.1659741,0 L91.1756667,4.09008816 C91.4104115,5.04719917 91.6324048,6.00374751 91.7552835,6.85282483 L91.7796274,6.85282483 C91.9523533,5.96773628 92.1865185,5.07083154 92.4450276,4.06645579 L93.5416627,0 L94.6382979,0 L92.2850534,8.06088911 L91.1640743,8.06088911 L90.1167066,3.86332993 C89.8581975,2.83419646 89.6854717,2.04532542 89.5747648,1.23169665 L89.5498413,1.23169665 C89.414211,2.03294656 89.2177208,2.82238027 88.9093647,3.86332993 L87.7263666,8.06088911 L86.6053876,8.06088911" id="Fill-14"></path>
                </g>
            </g>
        </g>
    </g>
</svg>