<?xml version="1.0" encoding="UTF-8"?>
<svg width="10px" height="10px" viewBox="0 0 10 10" version="1.1" xmlns="http://www.w3.org/2000/svg" xmlns:xlink="http://www.w3.org/1999/xlink">
    <!-- Generator: Sketch 42 (36781) - http://www.bohemiancoding.com/sketch -->
    <title>icon/close</title>
    <desc>Created with Sketch.</desc>
    <defs></defs>
    <g id="user-profile" stroke="none" stroke-width="1" fill="none" fill-rule="evenodd">
        <g id="user_bookmarks" transform="translate(-1160.000000, -258.000000)" fill="#FFFFFF">
            <g id="icon/close" transform="translate(1160.000000, 258.000000)">
                <path d="M6.01017857,5.00017857 L9.79089286,1.21946429 C10.0701786,0.940178571 10.0701786,0.48875 9.79089286,0.209464286 C9.51160714,-0.0698214286 9.06017857,-0.0698214286 8.78089286,0.209464286 L5.00017857,3.99017857 L1.21946429,0.209464286 C0.940178571,-0.0698214286 0.48875,-0.0698214286 0.209464286,0.209464286 C-0.0698214286,0.48875 -0.0698214286,0.940178571 0.209464286,1.21946429 L3.99017857,5.00017857 L0.209464286,8.78089286 C-0.0698214286,9.06017857 -0.0698214286,9.51160714 0.209464286,9.79089286 C0.34875,9.93017857 0.531607143,10.0001786 0.714464286,10.0001786 C0.897321429,10.0001786 1.08017857,9.93017857 1.21946429,9.79089286 L5.00017857,6.01017857 L8.78089286,9.79089286 C8.92017857,9.93017857 9.10303571,10.0001786 9.28589286,10.0001786 C9.46875,10.0001786 9.65160714,9.93017857 9.79089286,9.79089286 C10.0701786,9.51160714 10.0701786,9.06017857 9.79089286,8.78089286 L6.01017857,5.00017857" id="Shape"></path>
            </g>
        </g>
    </g>
</svg>