<?xml version="1.0" encoding="UTF-8"?>
<svg width="15px" height="15px" viewBox="0 0 15 15" version="1.1" xmlns="http://www.w3.org/2000/svg" xmlns:xlink="http://www.w3.org/1999/xlink">
    <!-- Generator: Sketch 45.2 (43514) - http://www.bohemiancoding.com/sketch -->
    <title>Group</title>
    <desc>Created with Sketch.</desc>
    <defs></defs>
    <g id="owner-cab" stroke="none" stroke-width="1" fill="none" fill-rule="evenodd">
        <g id="owner-cab-new-event" transform="translate(-544.000000, -451.000000)">
            <g id="Group" transform="translate(544.000000, 451.000000)">
                <rect id="Rectangle" fill="#888B94" x="0" y="1" width="15" height="14" rx="2"></rect>
                <rect id="Rectangle" fill="#FFFFFF" transform="translate(7.500000, 9.500000) scale(1, -1) translate(-7.500000, -9.500000) " x="2" y="6" width="11" height="7"></rect>
                <path d="M2,1 L6,1 L6,3.00104344 C6,3.55275191 5.55664682,4 4.9906311,4 L3.0093689,4 C2.45190985,4 2,3.55733967 2,3.00104344 L2,1 Z" id="Rectangle-3" fill="#FFFFFF"></path>
                <path d="M9,1 L13,1 L13,3.00104344 C13,3.55275191 12.5566468,4 11.9906311,4 L10.0093689,4 C9.45190985,4 9,3.55733967 9,3.00104344 L9,1 Z" id="Rectangle-3" fill="#FFFFFF"></path>
                <rect id="Rectangle-4" fill="#888B94" x="3" y="0" width="2" height="3"></rect>
                <rect id="Rectangle-4" fill="#888B94" x="10" y="0" width="2" height="3"></rect>
                <rect id="Rectangle-4" fill="#888B94" x="11" y="11" width="1" height="1"></rect>
                <rect id="Rectangle-4" fill="#888B94" x="11" y="9" width="1" height="1"></rect>
                <rect id="Rectangle-4" fill="#888B94" x="11" y="7" width="1" height="1"></rect>
                <rect id="Rectangle-4" fill="#888B94" x="9" y="11" width="1" height="1"></rect>
                <rect id="Rectangle-4" fill="#888B94" x="9" y="9" width="1" height="1"></rect>
                <rect id="Rectangle-4" fill="#888B94" x="9" y="7" width="1" height="1"></rect>
                <rect id="Rectangle-4" fill="#888B94" x="7" y="11" width="1" height="1"></rect>
                <rect id="Rectangle-4" fill="#888B94" x="7" y="9" width="1" height="1"></rect>
                <rect id="Rectangle-4" fill="#888B94" x="7" y="7" width="1" height="1"></rect>
                <rect id="Rectangle-4" fill="#888B94" x="5" y="11" width="1" height="1"></rect>
                <rect id="Rectangle-4" fill="#888B94" x="5" y="9" width="1" height="1"></rect>
                <rect id="Rectangle-4" fill="#888B94" x="5" y="7" width="1" height="1"></rect>
                <rect id="Rectangle-4" fill="#888B94" x="3" y="11" width="1" height="1"></rect>
                <rect id="Rectangle-4" fill="#888B94" x="3" y="9" width="1" height="1"></rect>
            </g>
        </g>
    </g>
</svg>