<?xml version="1.0" encoding="UTF-8"?>
<svg width="16px" height="18px" viewBox="0 0 16 18" version="1.1" xmlns="http://www.w3.org/2000/svg" xmlns:xlink="http://www.w3.org/1999/xlink">
    <!-- Generator: Sketch 42 (36781) - http://www.bohemiancoding.com/sketch -->
    <title>calendar</title>
    <desc>Created with Sketch.</desc>
    <defs></defs>
    <g id="atimic_kit" stroke="none" stroke-width="1" fill="none" fill-rule="evenodd">
        <g id="Atoms" transform="translate(-310.000000, -1383.000000)" fill="#888B94">
            <path d="M323.5,1385 L322,1385 L322,1383.99 C322,1383.443 321.557,1383 321.01,1383 L320.99,1383 C320.443,1383 320,1383.443 320,1383.99 L320,1385 L316,1385 L316,1383.99 C316,1383.443 315.557,1383 315.01,1383 L314.99,1383 C314.443,1383 314,1383.443 314,1383.99 L314,1385 L312.5,1385 C311.121,1385 310,1386.121 310,1387.5 L310,1398.5 C310,1399.878 311.121,1401 312.5,1401 L323.5,1401 C324.878,1401 326,1399.878 326,1398.5 L326,1387.5 C326,1386.121 324.878,1385 323.5,1385 L323.5,1385 Z M324,1398.5 C324,1398.775 323.775,1399 323.5,1399 L312.5,1399 C312.225,1399 312,1398.775 312,1398.5 L312,1387.5 C312,1387.225 312.225,1387 312.5,1387 L314,1387 L314,1388.01 C314,1388.557 314.443,1389 314.99,1389 L315.01,1389 C315.557,1389 316,1388.557 316,1388.01 L316,1387 L320,1387 L320,1388.01 C320,1388.557 320.443,1389 320.99,1389 L321.01,1389 C321.557,1389 322,1388.557 322,1388.01 L322,1387 L323.5,1387 C323.775,1387 324,1387.225 324,1387.5 L324,1398.5 L324,1398.5 Z M323,1396.01 C323,1396.557 322.557,1397 322.01,1397 L313.99,1397 C313.443,1397 313,1396.557 313,1396.01 L313,1395.99 C313,1395.443 313.443,1395 313.99,1395 L322.01,1395 C322.557,1395 323,1395.443 323,1395.99 L323,1396.01 L323,1396.01 Z M323,1392.01 C323,1392.557 322.557,1393 322.01,1393 L313.99,1393 C313.443,1393 313,1392.557 313,1392.01 L313,1391.99 C313,1391.443 313.443,1391 313.99,1391 L322.01,1391 C322.557,1391 323,1391.443 323,1391.99 L323,1392.01 L323,1392.01 Z" id="calendar"></path>
        </g>
    </g>
</svg>