<?xml version="1.0" encoding="UTF-8"?>
<svg width="18px" height="18px" viewBox="0 0 18 18" version="1.1" xmlns="http://www.w3.org/2000/svg" xmlns:xlink="http://www.w3.org/1999/xlink">
    <!-- Generator: Sketch 41.2 (35397) - http://www.bohemiancoding.com/sketch -->
    <title>icon/instagram</title>
    <desc>Created with Sketch.</desc>
    <defs></defs>
    <g id="Page-1" stroke="none" stroke-width="1" fill="none" fill-rule="evenodd">
        <g id="Artboard" transform="translate(-211.000000, -325.000000)" fill="#A4A8B3">
            <g id="icon/instagram" transform="translate(211.000000, 325.000000)">
                <path d="M5.28268655,0.110454197 C3.81759221,0.176559642 2.54772438,0.534779688 1.52233745,1.55584082 C0.49336838,2.58226185 0.139632278,3.85702495 0.0733627294,5.30687816 C0.0321681453,6.2118081 -0.208730618,13.0483617 0.489786242,14.8412486 C0.960837356,16.0507996 1.88861103,16.9807424 3.10922447,17.453307 C3.67878437,17.6748496 4.32894237,17.8249268 5.28268655,17.8686993 C13.2574207,18.2295993 16.2135799,18.0330696 17.4601638,14.8412486 C17.6813608,14.2730991 17.8336017,13.6236578 17.8756918,12.6722754 C18.2401743,4.6770898 17.8165865,2.94405516 16.4267171,1.55584082 C15.3243142,0.456167808 14.0275803,-0.29243169 5.28268655,0.110454197 M5.35612037,16.260729 C4.4829743,16.2214231 4.00923658,16.0758125 3.69311292,15.953428 C2.89787834,15.6443404 2.30055687,15.0493914 1.99338856,14.258806 C1.46144111,12.8964979 1.63786139,6.42620413 1.68532472,5.37923682 C1.73189251,4.35370911 1.9396565,3.41661976 2.66324832,2.69303313 C3.55878276,1.79971631 4.71581325,1.36199107 12.5938297,1.71753116 C13.6219032,1.76398364 14.5613188,1.97123314 15.2867017,2.69303313 C16.1822362,3.58634995 16.6264213,4.75212841 16.2646253,12.5999167 C16.2252218,13.4709006 16.0792497,13.9434652 15.9565615,14.258806 C15.1461028,16.3357676 13.2816001,16.624309 5.35612037,16.260729 M12.6806965,4.2206049 C12.6806965,4.81198064 13.1615985,5.29258509 13.7553379,5.29258509 C14.3490772,5.29258509 14.8308747,4.81198064 14.8308747,4.2206049 C14.8308747,3.62922916 14.3490772,3.14862471 13.7553379,3.14862471 C13.1615985,3.14862471 12.6806965,3.62922916 12.6806965,4.2206049 M4.3764057,8.9891301 C4.3764057,11.5225766 6.43523937,13.576312 8.97497503,13.576312 C11.5147107,13.576312 13.5735444,11.5225766 13.5735444,8.9891301 C13.5735444,6.45568359 11.5147107,4.40284153 8.97497503,4.40284153 C6.43523937,4.40284153 4.3764057,6.45568359 4.3764057,8.9891301 M5.99015875,8.9891301 C5.99015875,7.34542715 7.32629613,6.01170513 8.97497503,6.01170513 C10.6236539,6.01170513 11.9597913,7.34542715 11.9597913,8.9891301 C11.9597913,10.6337264 10.6236539,11.9674484 8.97497503,11.9674484 C7.32629613,11.9674484 5.99015875,10.6337264 5.99015875,8.9891301" id="instagram-[#167]"></path>
            </g>
        </g>
    </g>
</svg>