<?xml version="1.0" encoding="UTF-8"?>
<svg width="18px" height="17px" viewBox="0 0 18 17" version="1.1" xmlns="http://www.w3.org/2000/svg" xmlns:xlink="http://www.w3.org/1999/xlink">
    <!-- Generator: Sketch 41.2 (35397) - http://www.bohemiancoding.com/sketch -->
    <title>icon/raiting-off</title>
    <desc>Created with Sketch.</desc>
    <defs></defs>
    <g id="Page-1" stroke="none" stroke-width="1" fill="none" fill-rule="evenodd">
        <g id="Artboard" transform="translate(-355.000000, -225.000000)" fill="#A4A8B3">
            <g id="icon/raiting-off" transform="translate(355.000000, 225.000000)">
                <path d="M9.0048751,2.937 L10.4838751,7.489 L15.0798751,7.489 L12.3078751,9.416 L11.3868751,10.055 L12.8438751,14.462 L9.8868751,12.304 L9.0088751,11.663 L5.1628751,14.432 L6.6218751,10.056 L5.6988751,9.416 L2.9218751,7.489 L7.5208751,7.489 L9.0048751,2.937 M9.0108751,2.33146835e-15 C8.6648751,2.33146835e-15 8.3168751,0.201 8.1868751,0.602 L6.4328751,5.989 L0.860875098,5.989 C0.0188750982,5.989 -0.321124902,7.062 0.371875098,7.546 L4.8438751,10.648 L3.1168751,15.824 C2.9148751,16.435 3.3938751,16.972 3.9338751,16.972 C4.0998751,16.972 4.2708751,16.921 4.4308751,16.807 L9.0028751,13.516 L13.5728751,16.852 C13.7328751,16.968 13.9058751,17.02 14.0738751,17.02 C14.6128751,17.02 15.0928751,16.486 14.8908751,15.877 L13.1628751,10.648 L17.6278751,7.546 C18.3208751,7.064 17.9818751,5.989 17.1398751,5.989 L11.5738751,5.989 L9.8188751,0.59 C9.6898751,0.196 9.3508751,0 9.0108751,0" id="Shape"></path>
            </g>
        </g>
    </g>
</svg>