<?xml version="1.0" encoding="UTF-8"?>
<svg width="18px" height="16px" viewBox="0 0 18 16" version="1.1" xmlns="http://www.w3.org/2000/svg" xmlns:xlink="http://www.w3.org/1999/xlink">
    <!-- Generator: Sketch 41.2 (35397) - http://www.bohemiancoding.com/sketch -->
    <title>Shape</title>
    <desc>Created with Sketch.</desc>
    <defs></defs>
    <g id="atimic_kit" stroke="none" stroke-width="1" fill="none" fill-rule="evenodd">
        <g id="Atoms" transform="translate(-310.000000, -1334.000000)" fill="#888B94">
            <path d="M323.239,1336 L322.393,1334.922 C322.031,1334.319 321.38,1334 320.677,1334 L317.337,1334 C316.634,1334 315.982,1334.319 315.621,1334.922 L314.774,1336 L312,1336 C310.895,1336 310,1336.895 310,1338 L310,1347.996 C310,1349.1 310.895,1349.996 312,1349.996 L325.994,1349.996 C327.098,1349.996 327.994,1349.1 327.994,1347.996 L327.994,1338 C327.994,1336.895 327.098,1336 325.994,1336 L323.239,1336 L323.239,1336 Z M313.988,1342.998 C313.988,1340.237 316.23,1338 318.997,1338 C321.763,1338 324.006,1340.237 324.006,1342.998 C324.006,1345.757 321.763,1347.996 318.997,1347.996 C316.23,1347.996 313.988,1345.757 313.988,1342.998 L313.988,1342.998 Z M318.997,1340 C317.339,1340 315.991,1341.344 315.991,1342.999 C315.991,1344.652 317.338,1345.998 318.997,1345.998 C320.654,1345.998 322.003,1344.653 322.003,1342.999 C322.003,1341.345 320.655,1340 318.997,1340 L318.997,1340 Z" id="Shape"></path>
        </g>
    </g>
</svg>