<?xml version="1.0" encoding="UTF-8"?>
<svg width="141px" height="65px" viewBox="0 0 141 65" version="1.1" xmlns="http://www.w3.org/2000/svg" xmlns:xlink="http://www.w3.org/1999/xlink">
    <!-- Generator: Sketch 42 (36781) - http://www.bohemiancoding.com/sketch -->
    <title>logo</title>
    <desc>Created with Sketch.</desc>
    <defs></defs>
    <g id="Symbols" stroke="none" stroke-width="1" fill="none" fill-rule="evenodd">
        <g id="01_components/header" transform="translate(-250.000000, -12.000000)" fill="#FFFFFF">
            <g id="logo" transform="translate(250.000000, 12.000000)">
                <g id="foxy" transform="translate(0.000000, 18.000000)">
                    <path d="M40.3620403,2.42345509 C40.3620403,2.42345509 26.968389,8.83255854 26.002823,20.4638349 C26.002823,20.4638349 25.2792617,37.9115535 47,36.9626523 C47,36.9626523 29.1407081,33.7581006 40.2426732,14.8862261 C40.2426732,14.8862261 45.6738797,8.83255854 43.3805583,3.13513094 C43.3805583,3.13513094 42.6014013,1.15691332 40.3620403,2.42345509" id="Fill-1"></path>
                    <path d="M45,2 C45,2 46.4764786,3.08913309 46.558711,8 C46.558711,8 47.1180393,6.57387057 49.578343,6.09279609 C49.578343,6.09279609 49.9598716,6.09198209 51,6.03256003 C51,6.03256003 50.7547845,2.59259259 45,2" id="Fill-2"></path>
                    <path d="M52.9812766,0 C58.8520083,1.36714976 58.6165745,11.3494364 58.6165745,11.3494364 L58.733496,5.64492754 C72.241508,9.62721417 71.9997111,24.0652174 71.9997111,24.0652174 C70.9434408,46.0507246 51.9234154,47 51.9234154,47 C61.7845903,44.6231884 62.2554578,32.1457327 62.2554578,32.1457327 C62.37397,24.7777778 55.680811,23.9452496 55.680811,23.9452496 C51.9234154,24.3035427 43.7062999,23.9452496 43.7062999,23.9452496 C38.5410741,23.1135266 39.0111463,20.0241546 39.0111463,20.0241546 C39.7158568,18.5982287 42.8854633,16.3397746 42.8854633,16.3397746 C44.4110105,15.1513688 43.7062999,13.2495974 43.7062999,13.2495974 C44.0586552,6.95249597 51.9250062,6.35748792 51.9250062,6.35748792 C52.0435184,5.40660225 52.9812766,4.50402576 52.9812766,4.50402576 C53.8044993,3.00724638 52.9812766,0 52.9812766,0 Z M48.1548886,16.64052 C49.6196522,16.0851779 50.8942856,16.012742 52.3643728,16.5297846 C52.3795833,16.5364454 53.0792627,16.6871454 52.9925633,16.5772426 C51.6540461,14.8845734 49.7527434,14.476601 48.0088685,15.7338221 C47.7632202,15.9103326 47.0932011,16.2816708 47.0163885,16.6488459 C46.9045919,17.200025 47.3898043,16.9743913 47.7122653,16.8253564 C47.8582853,16.7579161 48.0058264,16.6963039 48.1548886,16.64052 Z" id="Combined-Shape"></path>
                    <path d="M56.8181101,27 C56.8181101,27 63.353368,33.1100739 50.0762896,37.5146522 C50.0762896,37.5146522 40.0021386,40.2997808 32.0836341,34.3691046 C32.0836341,34.3691046 27.1253257,30.0554428 26.0008852,27 C26.0008852,27 25.6769756,38.5926617 37.4213106,44.882945 C37.4213106,44.882945 45.3004315,49.6463187 53.816923,44.882945 C53.816923,44.882945 60.6431368,42.1871093 61,33.6498904 C61,33.6498904 60.9099805,27.5398165 56.8181101,27" id="Fill-5"></path>
                    <polyline id="Fill-6" points="0 6 22 6 22 10.332012 5.33237165 10.332012 5.33237165 23.6260383 20.7281403 23.6260383 20.7281403 27.8990897 5.33237165 27.8990897 5.33237165 46 0 46 0 6"></polyline>
                    <path d="M99.9901301,46 L94.8134776,37.1567038 C92.7308337,33.773639 91.4822059,31.5785511 90.2319804,29.2639484 L90.1121505,29.2639484 C88.9817549,31.5785511 87.7922433,33.7146784 85.7695142,37.2164612 L80.9499549,46 L75,46 L87.257003,25.7621656 L75.4753253,6 L81.4843963,6 L86.7808788,15.3763321 C88.2691663,17.988925 89.3995619,20.0055375 90.4700425,22.1424616 L90.6489885,22.1424616 C91.7793841,19.7681015 92.7899497,17.9291676 94.2782373,15.3763321 L99.6929519,6 L105.703621,6 L93.5041361,25.465769 L106,46 L99.9901301,46" id="Fill-7"></path>
                    <path d="M122.587012,46 L122.587012,29.0249188 L110,6 L115.882047,6 L121.469518,17.0375874 C122.94082,20.0652949 124.175987,22.4978189 125.411153,25.2864968 L125.528826,25.2864968 C126.587089,22.6762942 127.999949,20.0652949 129.528113,17.0375874 L135.234836,6 L141,6 L127.764604,28.966755 L127.764604,46 L122.587012,46" id="Fill-8"></path>
                </g>
                <g id="follow" transform="translate(1.000000, 0.000000)">
                    <polyline id="Fill-9" points="0 0 5.95714286 0 5.95714286 1.29072815 1.44373473 1.29072815 1.44373473 5.25023633 5.61203621 5.25023633 5.61203621 6.52266808 1.44373473 6.52266808 1.44373473 11.9142857 0 11.9142857 0 0"></polyline>
                    <path d="M24.4671725,6.01705607 C24.4671725,8.49561352 25.8500753,10.7007415 28.2964286,10.7007415 C30.7427819,10.7007415 32.1256846,8.5293901 32.1256846,5.91411793 C32.1256846,3.60685599 30.8845753,1.21354419 28.3139442,1.21354419 C25.7433132,1.21354419 24.4671725,3.50391784 24.4671725,6.01705607 Z M33.7571429,5.84576057 C33.7571429,9.79440336 31.2565744,11.9142857 28.2080162,11.9142857 C25.0343462,11.9142857 22.8357143,9.53786221 22.8357143,6.05083265 C22.8357143,2.3933118 25.1761396,0 28.3673253,0 C31.6469233,0 33.7571429,2.41020009 33.7571429,5.84576057 L33.7571429,5.84576057 Z" id="Fill-10"></path>
                    <polyline id="Fill-11" points="51.6285714 0 53.0231928 0 53.0231928 10.6235576 57.5857143 10.6235576 57.5857143 11.9142857 51.6285714 11.9142857 51.6285714 0"></polyline>
                    <polyline id="Fill-12" points="73.4714286 0 74.86605 0 74.86605 10.6235576 79.4285714 10.6235576 79.4285714 11.9142857 73.4714286 11.9142857 73.4714286 0"></polyline>
                    <path d="M98.9307487,6.01705607 C98.9307487,8.49561352 100.313757,10.7007415 102.760297,10.7007415 C105.207671,10.7007415 106.59068,8.5293901 106.59068,5.91411793 C106.59068,3.60685599 105.349476,1.21354419 102.778648,1.21354419 C100.207821,1.21354419 98.9307487,3.50391784 98.9307487,6.01705607 Z M108.221429,5.84576057 C108.221429,9.79440336 105.721503,11.9142857 102.672712,11.9142857 C99.4987998,11.9142857 97.3,9.53786221 97.3,6.05083265 C97.3,2.3933118 99.640604,0 102.831199,0 C106.111882,0 108.221429,2.41020009 108.221429,5.84576057 L108.221429,5.84576057 Z" id="Fill-13"></path>
                    <path d="M127.201663,11.9142857 L124.107143,0 L125.77231,0 L127.219541,6.02783351 C127.581348,7.51316886 127.907401,8.99767256 128.124486,10.1470194 L128.161092,10.1470194 C128.359448,8.96191141 128.739133,7.54809836 129.156276,6.01036876 L130.784836,0 L132.431274,0 L133.91426,6.04529826 C134.259042,7.45994296 134.585094,8.87375601 134.765573,10.128723 L134.801328,10.128723 C135.055019,8.82053011 135.398949,7.49487246 135.778634,6.01036876 L137.389317,0 L139,0 L135.543672,11.9142857 L133.897234,11.9142857 L132.358913,5.7101414 C131.979228,4.18904489 131.725537,3.02306496 131.562936,1.82049221 L131.526329,1.82049221 C131.327122,3.00476855 131.038527,4.17158014 130.585629,5.7101414 L128.848101,11.9142857 L127.201663,11.9142857" id="Fill-14"></path>
                </g>
            </g>
        </g>
    </g>
</svg>